<svg width="820" height="820" viewBox="0 0 820 820" fill="none" xmlns="http://www.w3.org/2000/svg">
<g filter="url(#filter0_f_14_5)">
<path fill-rule="evenodd" clip-rule="evenodd" d="M411.266 100.352C470.04 104.495 510.798 152.259 561.956 178.756C613.323 205.362 689.324 208.117 713.602 256.945C738.344 306.705 683.645 360.402 679.333 414.823C675.429 464.079 716.101 516.99 689.574 560.153C663.088 603.25 593.88 602.37 547.842 628.779C499.26 656.647 468.657 716.197 411.266 719.798C354.215 723.378 308.338 678.501 263.292 646.634C222.958 618.1 182.962 587.08 163.244 544.337C144.524 503.757 165.236 458.053 156.356 414.823C144.881 358.956 84.7568 308.379 103.643 254.185C121.89 201.829 193.26 183.075 246.377 156.513C298.666 130.365 351.698 96.1536 411.266 100.352Z" fill="url(#paint0_linear_14_5)"/>
</g>
<defs>
<filter id="filter0_f_14_5" x="0" y="0" width="820" height="820" filterUnits="userSpaceOnUse" color-interpolation-filters="sRGB">
<feFlood flood-opacity="0" result="BackgroundImageFix"/>
<feBlend mode="normal" in="SourceGraphic" in2="BackgroundImageFix" result="shape"/>
<feGaussianBlur stdDeviation="50" result="effect1_foregroundBlur_14_5"/>
</filter>
<linearGradient id="paint0_linear_14_5" x1="410" y1="100" x2="410" y2="720" gradientUnits="userSpaceOnUse">
<stop stop-color="#52AA8A"/>
<stop offset="1" stop-color="#52AA8A" stop-opacity="0"/>
</linearGradient>
</defs>
</svg>
